<svg width="34" height="34" viewBox="0 0 34 34" fill="none" xmlns="http://www.w3.org/2000/svg">
<rect x="0.125458" y="0.5" width="33.5098" height="33.5059" rx="4" fill="#F7ECE4"/>
<path d="M16.8823 12.7646C14.3979 12.7646 12.394 14.7686 12.394 17.2529C12.394 19.7373 14.3979 21.7412 16.8823 21.7412C19.3667 21.7412 21.3706 19.7373 21.3706 17.2529C21.3706 14.7686 19.3667 12.7646 16.8823 12.7646ZM16.8823 20.1709C15.2768 20.1709 13.9643 18.8623 13.9643 17.2529C13.9643 15.6436 15.2729 14.335 16.8823 14.335C18.4917 14.335 19.8003 15.6436 19.8003 17.2529C19.8003 18.8623 18.4878 20.1709 16.8823 20.1709ZM22.601 12.5811C22.601 13.1631 22.1323 13.6279 21.5542 13.6279C20.9721 13.6279 20.5073 13.1592 20.5073 12.5811C20.5073 12.0029 20.976 11.5342 21.5542 11.5342C22.1323 11.5342 22.601 12.0029 22.601 12.5811ZM25.5737 13.6436C25.5073 12.2412 25.187 10.999 24.1596 9.97559C23.1362 8.95215 21.894 8.63184 20.4917 8.56152C19.0464 8.47949 14.7143 8.47949 13.269 8.56152C11.8706 8.62793 10.6284 8.94824 9.60104 9.97168C8.5737 10.9951 8.25729 12.2373 8.18698 13.6396C8.10495 15.085 8.10495 19.417 8.18698 20.8623C8.25339 22.2646 8.5737 23.5068 9.60104 24.5303C10.6284 25.5537 11.8667 25.874 13.269 25.9443C14.7143 26.0264 19.0464 26.0264 20.4917 25.9443C21.894 25.8779 23.1362 25.5576 24.1596 24.5303C25.1831 23.5068 25.5034 22.2646 25.5737 20.8623C25.6557 19.417 25.6557 15.0889 25.5737 13.6436ZM23.7065 22.4131C23.4018 23.1787 22.812 23.7686 22.0425 24.0771C20.8901 24.5342 18.1557 24.4287 16.8823 24.4287C15.6089 24.4287 12.8706 24.5303 11.7221 24.0771C10.9565 23.7725 10.3667 23.1826 10.0581 22.4131C9.60104 21.2607 9.70651 18.5264 9.70651 17.2529C9.70651 15.9795 9.60495 13.2412 10.0581 12.0928C10.3628 11.3271 10.9526 10.7373 11.7221 10.4287C12.8745 9.97168 15.6089 10.0771 16.8823 10.0771C18.1557 10.0771 20.894 9.97559 22.0425 10.4287C22.8081 10.7334 23.3979 11.3232 23.7065 12.0928C24.1635 13.2451 24.0581 15.9795 24.0581 17.2529C24.0581 18.5264 24.1635 21.2646 23.7065 22.4131Z" fill="#D87023"/>
</svg>
