<svg width="37" height="35" viewBox="0 0 37 35" fill="none" xmlns="http://www.w3.org/2000/svg">
<rect x="0.125534" y="0.5" width="35.9999" height="34.2436" rx="4" fill="#F7ECE4"/>
<path d="M26.0697 13.5482C26.0824 13.7259 26.0824 13.9036 26.0824 14.0812C26.0824 19.5 21.958 25.7436 14.4199 25.7436C12.0976 25.7436 9.94026 25.071 8.12553 23.9036C8.45549 23.9416 8.77272 23.9543 9.11538 23.9543C11.0316 23.9543 12.7956 23.3071 14.2042 22.203C12.4022 22.165 10.892 20.9848 10.3717 19.3604C10.6255 19.3984 10.8793 19.4238 11.1458 19.4238C11.5139 19.4238 11.8819 19.373 12.2245 19.2843C10.3464 18.9035 8.93768 17.2538 8.93768 15.2614V15.2107C9.48335 15.5152 10.1179 15.7056 10.7905 15.7309C9.68639 14.9949 8.96307 13.7386 8.96307 12.3172C8.96307 11.5558 9.16608 10.8579 9.52143 10.2487C11.5392 12.736 14.5722 14.3604 17.9732 14.538C17.9098 14.2335 17.8717 13.9163 17.8717 13.599C17.8717 11.3401 19.6991 9.5 21.9707 9.5C23.1508 9.5 24.2168 9.99492 24.9656 10.7944C25.8919 10.6168 26.7803 10.2741 27.5671 9.80457C27.2625 10.7564 26.6153 11.5559 25.7651 12.0634C26.5899 11.9746 27.3894 11.7462 28.1255 11.4289C27.5672 12.2411 26.8692 12.9644 26.0697 13.5482Z" fill="#D87023"/>
</svg>
