<svg width="35" height="35" viewBox="0 0 35 35" fill="none" xmlns="http://www.w3.org/2000/svg">
<rect y="0.5" width="34.1255" height="34.0159" rx="4" fill="#F7ECE4"/>
<path d="M26.1255 17.5628C26.1255 12.5563 22.0692 8.5 17.0628 8.5C12.0563 8.5 8 12.5563 8 17.5628C8 22.0861 11.3141 25.8355 15.6467 26.5159V20.1826H13.3445V17.5628H15.6467V15.566C15.6467 13.2949 16.9988 12.0403 19.0697 12.0403C20.0615 12.0403 21.0986 12.2172 21.0986 12.2172V14.4463H19.9555C18.83 14.4463 18.4788 15.1451 18.4788 15.8617V17.5628H20.9923L20.5903 20.1826H18.4788V26.5159C22.8114 25.8355 26.1255 22.0861 26.1255 17.5628Z" fill="#D87023"/>
</svg>
